<?xml version="1.0" encoding="iso-8859-1"?>
<!-- Uploaded to: SVG Repo, www.svgrepo.com, Generator: SVG Repo Mixer Tools -->
<svg version="1.1" id="Layer_1" xmlns="http://www.w3.org/2000/svg" xmlns:xlink="http://www.w3.org/1999/xlink" 
	 viewBox="0 0 512 512" xml:space="preserve">
<circle style="fill:#EFC84A;" cx="256" cy="256" r="256"/>
<path style="opacity:0.1;enable-background:new    ;" d="M490.784,358.08l-212-211.995l-0.032,0.08
	c-2.437-3.152-5.019-6.229-7.909-9.12c-36.949-36.949-96.853-36.949-133.803,0s-36.949,96.853,0,133.803
	c1.259,1.259,2.597,2.384,3.909,3.557l-0.064,0.059l216.587,216.587C417.051,465.296,464.88,417.573,490.784,358.08z"/>
<g>
	<ellipse style="opacity:0.5;fill:#FFFFFF;enable-background:new    ;" cx="203.947" cy="203.947" rx="77.451" ry="77.451"/>
	<path style="opacity:0.5;fill:#FFFFFF;enable-background:new    ;" d="M167.867,249.355c-25.851-25.851-26.187-67.424-0.752-92.859
		c5.675-5.675,12.181-9.995,19.109-13.104c-9.845,2.869-19.131,8.176-26.891,15.941c-24.64,24.64-24.64,64.592,0,89.232
		c10.912,10.912,24.821,16.965,39.077,18.219C187.253,263.893,176.645,258.128,167.867,249.355z"/>
</g>
<path style="fill:#3A556A;" d="M270.848,137.045c-36.949-36.949-96.853-36.949-133.803,0s-36.949,96.853,0,133.803
	c34.048,34.048,87.552,36.64,124.661,7.936l8.464,8.464l17.077-17.077l-8.464-8.464
	C307.483,224.597,304.896,171.093,270.848,137.045z M258.709,258.709c-30.245,30.245-79.285,30.245-109.531,0
	c-30.245-30.245-30.245-79.285,0-109.531s79.285-30.245,109.531,0C288.955,179.424,288.955,228.464,258.709,258.709z"/>
<path style="fill:#E56353;" d="M291.845,263.819l-28.027,28.027c-1.595,1.595-1.595,4.176,0,5.765l104.043,104.043
	c7.243,7.243,41.035-26.549,33.792-33.792L297.611,263.819C296.021,262.229,293.44,262.229,291.845,263.819z"/>
<g>
	
		<rect x="353.645" y="373.494" transform="matrix(0.7071 -0.7071 0.7071 0.7071 -156.3898 377.5417)" style="fill:#EBF0F3;" width="47.786" height="8.112"/>
	
		<rect x="264.91" y="284.765" transform="matrix(0.7071 -0.7071 0.7071 0.7071 -119.6386 288.8084)" style="fill:#EBF0F3;" width="47.786" height="8.112"/>
</g>
</svg>