<svg baseProfile="full" height="28" version="1.1" viewBox="0 0 264 28" width="264" xmlns="http://www.w3.org/2000/svg" xmlns:ev="http://www.w3.org/2001/xml-events" xmlns:xlink="http://www.w3.org/1999/xlink"><defs /><g><path d="M14.038147138964579 28.0 1.4114441416893733 0.7629427792915529H8.239782016348775L16.365122615803816 20.637602179836513ZM14.038147138964579 28.0 13.923705722070846 23.346049046321525 23.61307901907357 0.6485013623978197H26.35967302452316L16.250681198910083 23.002724795640326Q16.174386920980925 23.231607629427792 15.888283378746593 23.861035422343324Q15.602179836512262 24.490463215258856 15.258855585831064 25.291553133514988Q14.915531335149865 26.092643051771116 14.667574931880111 26.83651226158038Q14.419618528610355 27.580381471389646 14.381471389645776 28.0ZM22.46866485013624 3.3188010899182565Q22.96457765667575 2.1743869209809255 22.35422343324251 1.5449591280653951Q21.743869209809265 0.9155313351498648 21.01907356948229 0.9155313351498648H20.675749318801092V0.5340599455040866H28.83923705722071V0.9155313351498648Q28.83923705722071 0.9155313351498648 28.66757493188011 0.9155313351498648Q28.49591280653951 0.9155313351498648 28.49591280653951 0.9155313351498648Q27.6566757493188 0.9155313351498648 26.722070844686648 1.468664850136241Q25.787465940054496 2.021798365122617 25.177111716621255 3.3188010899182565ZM9.307901907356948 3.3188010899182565H2.5940054495912808Q1.9836512261580381 2.021798365122617 1.0490463215258856 1.468664850136241Q0.11444141689373297 0.9155313351498648 -0.7629427792915532 0.9155313351498648Q-0.7629427792915532 0.9155313351498648 -0.9155313351498637 0.9155313351498648Q-1.0681198910081744 0.9155313351498648 -1.0681198910081744 0.9155313351498648V0.5340599455040866H11.06267029972752V0.9155313351498648H10.719346049046322Q9.994550408719347 0.9155313351498648 9.44141689373297 1.5449591280653951Q8.888283378746594 2.1743869209809255 9.307901907356948 3.3188010899182565Z M37.23160762942779 4.348773841961851V27.237057220708447H31.73841961852861V4.348773841961851ZM31.852861035422343 24.833787465940055V27.237057220708447H29.068119891008173V26.85558583106267Q29.068119891008173 26.85558583106267 29.29700272479564 26.85558583106267Q29.525885558583106 26.85558583106267 29.564032697547685 26.85558583106267Q30.44141689373297 26.85558583106267 31.08991825613079 26.264305177111716Q31.73841961852861 25.673024523160763 31.73841961852861 24.833787465940055ZM37.155313351498634 24.833787465940055H37.23160762942779Q37.269754768392374 25.673024523160763 37.8991825613079 26.264305177111716Q38.52861035422343 26.85558583106267 39.444141689373296 26.85558583106267Q39.444141689373296 26.85558583106267 39.653950953678475 26.85558583106267Q39.86376021798365 26.85558583106267 39.90190735694823 26.85558583106267V27.237057220708447H37.155313351498634ZM37.155313351498634 6.752043596730246V4.348773841961851H39.90190735694823L39.86376021798365 4.730245231607629Q39.86376021798365 4.730245231607629 39.67302452316076 4.730245231607629Q39.48228882833787 4.730245231607629 39.444141689373296 4.730245231607629Q38.52861035422343 4.730245231607629 37.8991825613079 5.302452316076295Q37.269754768392374 5.87465940054496 37.23160762942779 6.752043596730246ZM31.852861035422343 6.752043596730246H31.73841961852861Q31.73841961852861 5.87465940054496 31.08991825613079 5.302452316076295Q30.44141689373297 4.730245231607629 29.525885558583106 4.730245231607629Q29.525885558583106 4.730245231607629 29.29700272479564 4.730245231607629Q29.068119891008173 4.730245231607629 29.068119891008173 4.730245231607629V4.348773841961851H31.852861035422343Z M50.27792915531335 3.852861035422343Q51.04087193460491 3.852861035422343 52.12806539509537 3.929155313351499Q53.21525885558583 4.005449591280655 54.283378746594 4.100817438692099Q55.35149863760218 4.1961852861035425 56.171662125340596 4.329700272479563Q56.991825613079016 4.463215258855584 57.29700272479564 4.577656675749317L56.80108991825613 9.231607629427792H56.45776566757493Q56.45776566757493 7.47683923705722 55.23705722070845 6.446866485013624Q54.01634877384196 5.416893732970028 51.7275204359673 5.416893732970028Q49.89645776566758 5.416893732970028 48.771117166212534 6.217983651226158Q47.64577656675749 7.019073569482288 47.56948228882834 8.354223433242506Q47.49318801089918 9.040871934604905 47.817438692098094 9.59400544959128Q48.141689373297 10.147138964577657 48.73297002724796 10.56675749318801Q49.32425068119891 10.986376021798364 50.049046321525886 11.40599455040872L56.038147138964575 15.106267029972752Q57.56403269754769 15.869209809264305 58.44141689373297 17.318801089918257Q59.31880108991825 18.768392370572208 59.20435967302453 20.8283378746594Q59.08991825613079 22.96457765667575 57.96457765667574 24.52861035422343Q56.83923705722071 26.092643051771116 54.87465940054496 26.91280653950954Q52.91008174386921 27.73297002724796 50.23978201634877 27.73297002724796Q48.59945504087193 27.73297002724796 47.18801089918256 27.465940054495913Q45.776566757493185 27.19891008174387 44.76566757493188 26.741144414168936Q43.75476839237057 26.283378746594007 43.22070844686648 25.71117166212534Q42.915531335149865 24.94822888283379 42.95367847411444 23.861035422343324Q42.991825613079016 22.77384196185286 43.29700272479564 21.6866485013624Q43.60217983651226 20.599455040871934 44.059945504087196 19.87465940054496H44.36512261580381Q44.25068119891008 21.591280653950953 44.97547683923706 23.040871934604905Q45.700272479564035 24.490463215258856 47.16893732970027 25.34877384196185Q48.63760217983651 26.20708446866485 50.65940054495913 26.20708446866485Q52.87193460490463 26.20708446866485 53.97820163487738 25.177111716621255Q55.084468664850135 24.147138964577657 55.084468664850135 22.735694822888284Q55.084468664850135 21.743869209809265 54.416893732970024 20.923705722070846Q53.74931880108992 20.103542234332426 52.223433242506815 19.302452316076295L46.80653950953678 15.869209809264305Q44.8991825613079 14.877384196185286 44.04087193460491 13.237057220708447Q43.182561307901906 11.596730245231607 43.41144414168937 9.651226158038146Q43.60217983651226 7.820163487738419 44.49863760217984 6.523160762942778Q45.39509536784741 5.226158038147137 46.88283378746594 4.53950953678474Q48.370572207084464 3.852861035422343 50.27792915531335 3.852861035422343ZM57.29700272479564 4.1961852861035425 57.25885558583106 4.882833787465941H53.177111716621255V4.1961852861035425Z M69.65667574931881 4.348773841961851V18.73024523160763Q69.65667574931881 22.239782016348773 71.27792915531336 24.22343324250681Q72.89918256130791 26.20708446866485 75.7983651226158 26.20708446866485Q78.81198910081744 26.20708446866485 80.47138964577657 24.337874659400544Q82.1307901907357 22.46866485013624 82.16893732970027 19.149863760217983V4.348773841961851H84.6866485013624V18.920980926430516Q84.6866485013624 23.002724795640326 82.18801089918256 25.367847411444142Q79.68937329700273 27.73297002724796 75.11171662125341 27.73297002724796Q69.61852861035423 27.73297002724796 66.89100817438693 25.386920980926433Q64.16348773841962 23.040871934604905 64.16348773841962 18.959128065395095V4.348773841961851ZM64.23978201634878 4.348773841961851V6.332425068119889H64.16348773841962Q64.12534059945504 5.607629427792915 63.629427792915536 5.149863760217983Q63.13351498637603 4.69209809264305 62.40871934604905 4.69209809264305Q62.40871934604905 4.69209809264305 62.141689373297005 4.69209809264305Q61.874659400544964 4.69209809264305 61.874659400544964 4.69209809264305V4.348773841961851ZM71.90735694822888 4.348773841961851V4.69209809264305Q71.90735694822888 4.69209809264305 71.64032697547684 4.69209809264305Q71.3732970027248 4.69209809264305 71.3732970027248 4.69209809264305Q70.64850136239782 4.69209809264305 70.15258855585832 5.149863760217983Q69.65667574931881 5.607629427792915 69.65667574931881 6.332425068119889H69.58038147138964V4.348773841961851ZM82.24523160762944 4.348773841961851V6.332425068119889H82.16893732970027Q82.1307901907357 5.607629427792915 81.63487738419619 5.149863760217983Q81.13896457765668 4.69209809264305 80.45231607629428 4.69209809264305Q80.45231607629428 4.69209809264305 80.18528610354224 4.69209809264305Q79.9182561307902 4.69209809264305 79.9182561307902 4.69209809264305V4.348773841961851ZM86.93732970027249 4.348773841961851V4.69209809264305Q86.93732970027249 4.69209809264305 86.68937329700273 4.69209809264305Q86.44141689373298 4.69209809264305 86.44141689373298 4.69209809264305Q85.716621253406 4.69209809264305 85.20163487738421 5.149863760217983Q84.6866485013624 5.607629427792915 84.6866485013624 6.332425068119889H84.61035422343325V4.348773841961851Z M96.93188010899182 4.348773841961851H101.01362397820164Q102.6158038147139 4.348773841961851 104.10354223433242 4.6730245231607626Q105.59128065395095 4.997275204359674 106.77384196185287 5.7029972752043605Q107.95640326975477 6.408719346049047 108.66212534059946 7.610354223433243Q109.36784741144415 8.811989100817438 109.36784741144415 10.60490463215259Q109.36784741144415 11.940054495912806 108.81471389645776 13.256130790190735Q108.26158038147139 14.572207084468666 107.09809264305177 15.525885558583106Q105.93460490463215 16.479564032697546 104.06539509536785 16.78474114441417Q105.1716621253406 17.12806539509537 106.18256130790192 18.11989100817439Q107.19346049046322 19.111716621253407 107.7275204359673 19.989100817438693Q107.91825613079018 20.294277929155314 108.29972752043597 20.961852861035425Q108.68119891008175 21.629427792915532 109.2724795640327 22.48773841961853Q109.86376021798365 23.346049046321525 110.51226158038148 24.26158038147139Q111.27520435967303 25.291553133514988 111.8474114441417 25.844686648501366Q112.41961852861036 26.39782016348774 113.02997275204359 26.626702997275203Q113.64032697547684 26.85558583106267 114.44141689373296 26.85558583106267V27.237057220708447H111.23705722070845Q109.17711171662125 27.237057220708447 107.7465940054496 26.931880108991827Q106.31607629427793 26.626702997275206 105.28610354223434 25.806539509536783Q104.25613079019074 24.986376021798364 103.34059945504087 23.57493188010899Q102.99727520435967 23.079019073569484 102.6158038147139 22.373297002724797Q102.23433242506812 21.66757493188011 101.85286103542234 20.942779291553133Q101.47138964577657 20.217983651226156 101.18528610354224 19.531335149863757Q100.8991825613079 18.844686648501362 100.78474114441417 18.38692098092643Q100.28882833787466 17.166212534059945 99.65940054495913 16.61307901907357Q99.02997275204359 16.059945504087196 98.49591280653951 16.059945504087196V15.716621253405995Q98.49591280653951 15.716621253405995 98.76294277929155 15.716621253405995Q99.02997275204359 15.716621253405995 99.44959128065395 15.716621253405995Q100.25068119891009 15.716621253405995 101.03269754768392 15.430517711171662Q101.81471389645776 15.14441416893733 102.46321525885558 14.32425068119891Q103.11171662125341 13.50408719346049 103.41689373297002 11.901907356948229Q103.49318801089919 11.673024523160763 103.55040871934605 11.253405994550409Q103.60762942779292 10.833787465940055 103.56948228882834 10.299727520435965Q103.49318801089919 8.888283378746593 103.05449591280654 8.049046321525884Q102.6158038147139 7.209809264305175 101.96730245231608 6.752043596730244Q101.31880108991825 6.294277929155314 100.65122615803814 6.122615803814714Q99.98365122615803 5.950953678474114 99.48773841961852 5.950953678474114Q98.76294277929155 5.9128065395095355 98.17166212534059 5.931880108991825Q97.58038147138964 5.950953678474114 97.27520435967303 5.9128065395095355Q97.23705722070845 5.9128065395095355 97.16076294277929 5.512261580381471Q97.08446866485014 5.111716621253407 97.00817438692098 4.730245231607629Q96.93188010899182 4.348773841961851 96.93188010899182 4.348773841961851ZM97.3133514986376 4.348773841961851V27.237057220708447H91.78201634877384V4.348773841961851ZM91.89645776566758 24.833787465940055 92.04904632152588 27.237057220708447H89.3024523160763V26.85558583106267Q89.34059945504087 26.85558583106267 89.51226158038148 26.85558583106267Q89.68392370572207 26.85558583106267 89.76021798365123 26.85558583106267Q90.59945504087193 26.85558583106267 91.19073569482288 26.264305177111716Q91.78201634877384 25.673024523160763 91.82016348773843 24.833787465940055ZM91.89645776566758 6.713896457765667H91.82016348773843Q91.78201634877384 5.836512261580381 91.19073569482288 5.283378746594005Q90.59945504087193 4.730245231607629 89.7983651226158 4.730245231607629Q89.68392370572207 4.730245231607629 89.51226158038148 4.730245231607629Q89.34059945504087 4.730245231607629 89.3024523160763 4.730245231607629V4.348773841961851H92.04904632152588ZM97.23705722070845 24.833787465940055H97.3133514986376Q97.3133514986376 25.787465940054496 97.98092643051771 26.321525885558582Q98.64850136239782 26.85558583106267 99.3732970027248 26.85558583106267Q99.3732970027248 26.85558583106267 99.54495912806539 26.85558583106267Q99.71662125340599 26.85558583106267 99.79291553133515 26.85558583106267V27.237057220708447H97.04632152588556Z M125.00817438692098 3.3188010899182565 136.29972752043597 27.04632152588556H129.85286103542234L122.7574931880109 10.299727520435965ZM117.83651226158038 24.719346049046322Q117.41689373297004 25.74931880108992 117.95095367847412 26.302452316076295Q118.4850136239782 26.85558583106267 119.13351498637603 26.85558583106267H119.43869209809264V27.237057220708447H111.80926430517712V26.85558583106267Q111.80926430517712 26.85558583106267 111.96185286103542 26.85558583106267Q112.11444141689374 26.85558583106267 112.11444141689374 26.85558583106267Q112.87738419618529 26.85558583106267 113.716621253406 26.37874659400545Q114.5558583106267 25.90190735694823 115.0899182561308 24.719346049046322ZM125.00817438692098 3.3188010899182565 125.08446866485014 7.896457765667574 116.80653950953679 27.122615803814714H113.98365122615805L122.91008174386921 7.9346049046321525Q122.98637602179838 7.705722070844686 123.25340599455042 7.114441416893733Q123.52043596730246 6.52316076294278 123.82561307901908 5.779291553133515Q124.1307901907357 5.0354223433242495 124.39782016348775 4.36784741144414Q124.66485013623979 3.700272479564031 124.70299727520437 3.3188010899182565ZM128.32697547683924 19.760217983651227V21.247956403269754H118.59945504087194V19.760217983651227ZM128.8991825613079 24.719346049046322H135.19346049046322Q135.76566757493188 25.90190735694823 136.6049046321526 26.37874659400545Q137.4441416893733 26.85558583106267 138.20708446866485 26.85558583106267Q138.20708446866485 26.85558583106267 138.35967302452315 26.85558583106267Q138.51226158038148 26.85558583106267 138.51226158038148 26.85558583106267V27.237057220708447H127.29700272479565V26.85558583106267H127.60217983651226Q128.2506811989101 26.85558583106267 128.78474114441417 26.302452316076295Q129.31880108991825 25.74931880108992 128.8991825613079 24.719346049046322Z M167.16076294277931 0.0 167.46594005449595 4.158038147138964 156.13623978201636 23.803814713896458Q156.13623978201636 23.803814713896458 155.75476839237058 24.47138964577657Q155.37329700272483 25.138964577656676 155.01089918256133 26.09264305177112Q154.64850136239784 27.04632152588556 154.64850136239784 28.0H154.26702997275206L152.77929155313353 24.681198910081743ZM141.29700272479565 24.452316076294277V27.237057220708447H137.06267029972753V26.85558583106267Q137.1008174386921 26.85558583106267 137.38692098092645 26.85558583106267Q137.6730245231608 26.85558583106267 137.6730245231608 26.85558583106267Q138.70299727520438 26.85558583106267 139.50408719346052 26.22615803814714Q140.30517711171663 25.59673024523161 140.45776566757496 24.452316076294277ZM142.97547683923707 25.06267029972752Q142.97547683923707 25.100817438692097 142.97547683923707 25.138964577656676Q142.97547683923707 25.177111716621255 142.97547683923707 25.25340599455041Q142.97547683923707 25.86376021798365 143.41416893732972 26.37874659400545Q143.85286103542236 26.893732970027248 144.4632152588556 26.893732970027248H145.07356948228883V27.237057220708447H142.70844686648502V25.06267029972752ZM143.62397820163488 0.0H143.9673024523161L145.3024523160763 3.8147138964577643L142.7465940054496 27.237057220708447H140.11444141689375ZM143.9673024523161 0.0 156.441416893733 20.4850136239782 154.26702997275206 28.0 142.97547683923707 9.040871934604905ZM167.50408719346052 0.0 171.12806539509538 27.237057220708447H164.98637602179838L163.0790190735695 9.689373297002724L167.16076294277931 0.0ZM169.94550408719348 24.452316076294277H170.7465940054496Q170.9373297002725 25.59673024523161 171.7384196185286 26.22615803814714Q172.53950953678475 26.85558583106267 173.53133514986376 26.85558583106267Q173.53133514986376 26.85558583106267 173.8365122615804 26.85558583106267Q174.14168937329703 26.85558583106267 174.14168937329703 26.85558583106267V27.237057220708447H169.94550408719348ZM164.75749318801093 25.06267029972752H165.02452316076295V27.237057220708447H162.69754768392372V26.893732970027248H163.26975476839237Q163.9182561307902 26.893732970027248 164.33787465940057 26.37874659400545Q164.75749318801093 25.86376021798365 164.75749318801093 25.25340599455041Q164.75749318801093 25.177111716621255 164.75749318801093 25.138964577656676Q164.75749318801093 25.100817438692097 164.75749318801093 25.06267029972752Z M183.10626702997277 4.348773841961851V27.237057220708447H177.61307901907358V4.348773841961851ZM192.03269754768394 25.71117166212534 192.91008174386923 27.237057220708447H183.02997275204362V25.71117166212534ZM190.7356948228883 15.14441416893733V16.670299727520437H183.02997275204362V15.14441416893733ZM192.4523160762943 4.348773841961851V5.87465940054496H183.02997275204362V4.348773841961851ZM194.4741144414169 20.217983651226156 193.02452316076295 27.237057220708447H186.42506811989102L187.60762942779294 25.71117166212534Q189.24795640326977 25.71117166212534 190.52588555858313 25.043596730245234Q191.8038147138965 24.376021798365123 192.71934604904635 23.13623978201635Q193.63487738419622 21.896457765667577 194.13079019073572 20.217983651226156ZM190.7356948228883 16.59400544959128V19.950953678474114H190.35422343324254V19.645776566757494Q190.35422343324254 18.38692098092643 189.5722070844687 17.52861035422343Q188.79019073569484 16.670299727520437 187.4550408719346 16.670299727520437V16.59400544959128ZM190.7356948228883 11.863760217983652V15.220708446866485H187.4550408719346V15.14441416893733Q188.79019073569484 15.106267029972752 189.5722070844687 14.247956403269754Q190.35422343324254 13.389645776566757 190.35422343324254 12.130790190735695V11.863760217983652ZM192.4523160762943 5.798365122615802V9.841961852861036H192.0708446866485V9.498637602179837Q192.0708446866485 7.820163487738419 191.17438692098094 6.8664850136239775Q190.27792915531336 5.9128065395095355 188.59945504087196 5.87465940054496V5.798365122615802ZM192.4523160762943 3.776566757493189V4.69209809264305L188.44686648501363 4.348773841961851Q189.5531335149864 4.348773841961851 190.7738419618529 4.138964577656674Q191.99455040871936 3.9291553133514974 192.4523160762943 3.776566757493189ZM177.72752043596734 24.833787465940055 177.88010899182564 27.237057220708447H175.0572207084469V26.85558583106267Q175.0572207084469 26.85558583106267 175.28610354223434 26.85558583106267Q175.51498637602182 26.85558583106267 175.5531335149864 26.85558583106267Q176.3923705722071 26.85558583106267 177.00272479564035 26.264305177111716Q177.61307901907358 25.673024523160763 177.61307901907358 24.833787465940055ZM177.72752043596734 6.752043596730246H177.61307901907358Q177.61307901907358 5.87465940054496 177.00272479564035 5.302452316076295Q176.3923705722071 4.730245231607629 175.5531335149864 4.730245231607629Q175.51498637602182 4.730245231607629 175.28610354223434 4.730245231607629Q175.0572207084469 4.730245231607629 175.0572207084469 4.730245231607629V4.348773841961851H177.88010899182564Z M209.42779291553134 4.348773841961851Q213.50953678474116 4.348773841961851 216.44686648501363 5.702997275204359Q219.38419618528613 7.0572207084468666 220.9482288828338 9.632152588555858Q222.51226158038148 12.20708446866485 222.51226158038148 15.792915531335149Q222.51226158038148 19.37874659400545 220.9482288828338 21.934604904632153Q219.38419618528613 24.490463215258856 216.44686648501363 25.863760217983653Q213.50953678474116 27.237057220708447 209.42779291553134 27.237057220708447H200.9591280653951L200.88283378746596 25.71117166212534Q203.78201634877385 25.71117166212534 205.55585831062672 25.71117166212534Q207.32970027247958 25.71117166212534 208.149863760218 25.71117166212534Q208.9700272479564 25.71117166212534 208.9700272479564 25.71117166212534Q212.55585831062672 25.71117166212534 214.63487738419622 23.079019073569484Q216.71389645776568 20.446866485013622 216.71389645776568 15.792915531335149Q216.71389645776568 11.138964577656676 214.63487738419622 8.487738419618529Q212.55585831062672 5.836512261580381 208.9700272479564 5.836512261580381Q208.9700272479564 5.836512261580381 208.1307901907357 5.836512261580381Q207.291553133515 5.836512261580381 205.4223433242507 5.836512261580381Q203.5531335149864 5.836512261580381 200.50136239782017 5.836512261580381V4.348773841961851ZM204.65940054495914 4.348773841961851V27.237057220708447H199.16621253405995V4.348773841961851ZM199.2806539509537 24.795640326975477V27.237057220708447H196.5340599455041V26.85558583106267Q196.5340599455041 26.85558583106267 196.76294277929156 26.85558583106267Q196.99182561307904 26.85558583106267 197.02997275204362 26.85558583106267Q197.9073569482289 26.85558583106267 198.53678474114443 26.245231607629428Q199.16621253405995 25.634877384196187 199.16621253405995 24.795640326975477ZM199.24250681198913 6.752043596730246H199.16621253405995Q199.12806539509538 5.87465940054496 198.49863760217985 5.302452316076295Q197.86920980926433 4.730245231607629 196.99182561307904 4.730245231607629Q196.99182561307904 4.730245231607629 196.76294277929156 4.730245231607629Q196.5340599455041 4.730245231607629 196.5340599455041 4.730245231607629V4.348773841961851H199.24250681198913Z M233.26975476839237 4.348773841961851V27.237057220708447H227.77656675749319V4.348773841961851ZM227.89100817438694 24.833787465940055V27.237057220708447H225.10626702997277V26.85558583106267Q225.10626702997277 26.85558583106267 225.33514986376025 26.85558583106267Q225.5640326975477 26.85558583106267 225.60217983651228 26.85558583106267Q226.47956403269757 26.85558583106267 227.12806539509538 26.264305177111716Q227.77656675749319 25.673024523160763 227.77656675749319 24.833787465940055ZM233.19346049046322 24.833787465940055H233.26975476839237Q233.30790190735695 25.673024523160763 233.93732970027247 26.264305177111716Q234.56675749318802 26.85558583106267 235.4822888283379 26.85558583106267Q235.4822888283379 26.85558583106267 235.69209809264305 26.85558583106267Q235.90190735694824 26.85558583106267 235.94005449591282 26.85558583106267V27.237057220708447H233.19346049046322ZM233.19346049046322 6.752043596730246V4.348773841961851H235.94005449591282L235.90190735694824 4.730245231607629Q235.90190735694824 4.730245231607629 235.71117166212537 4.730245231607629Q235.52043596730246 4.730245231607629 235.4822888283379 4.730245231607629Q234.56675749318802 4.730245231607629 233.93732970027247 5.302452316076295Q233.30790190735695 5.87465940054496 233.26975476839237 6.752043596730246ZM227.89100817438694 6.752043596730246H227.77656675749319Q227.77656675749319 5.87465940054496 227.12806539509538 5.302452316076295Q226.47956403269757 4.730245231607629 225.5640326975477 4.730245231607629Q225.5640326975477 4.730245231607629 225.33514986376025 4.730245231607629Q225.10626702997277 4.730245231607629 225.10626702997277 4.730245231607629V4.348773841961851H227.89100817438694Z M249.40599455040874 3.3188010899182565 260.69754768392374 27.04632152588556H254.25068119891012L247.15531335149865 10.299727520435965ZM242.23433242506815 24.719346049046322Q241.8147138964578 25.74931880108992 242.34877384196187 26.302452316076295Q242.88283378746596 26.85558583106267 243.53133514986376 26.85558583106267H243.8365122615804V27.237057220708447H236.20708446866487V26.85558583106267Q236.20708446866487 26.85558583106267 236.35967302452318 26.85558583106267Q236.51226158038148 26.85558583106267 236.51226158038148 26.85558583106267Q237.27520435967304 26.85558583106267 238.11444141689375 26.37874659400545Q238.95367847411447 25.90190735694823 239.48773841961855 24.719346049046322ZM249.40599455040874 3.3188010899182565 249.4822888283379 7.896457765667574 241.20435967302456 27.122615803814714H238.38147138964578L247.30790190735698 7.9346049046321525Q247.38419618528613 7.705722070844686 247.65122615803818 7.114441416893733Q247.9182561307902 6.52316076294278 248.22343324250681 5.779291553133515Q248.52861035422345 5.0354223433242495 248.7956403269755 4.36784741144414Q249.06267029972753 3.700272479564031 249.1008174386921 3.3188010899182565ZM252.724795640327 19.760217983651227V21.247956403269754H242.99727520435968V19.760217983651227ZM253.29700272479565 24.719346049046322H259.59128065395095Q260.16348773841963 25.90190735694823 261.00272479564035 26.37874659400545Q261.84196185286106 26.85558583106267 262.6049046321526 26.85558583106267Q262.6049046321526 26.85558583106267 262.7574931880109 26.85558583106267Q262.9100817438692 26.85558583106267 262.9100817438692 26.85558583106267V27.237057220708447H251.6948228882834V26.85558583106267H252.00000000000003Q252.64850136239784 26.85558583106267 253.18256130790192 26.302452316076295Q253.716621253406 25.74931880108992 253.29700272479565 24.719346049046322Z " fill="rgb(255,255,255)" transform="translate(1.0681198910081744, 0)" /></g></svg>