<svg xmlns="http://www.w3.org/2000/svg" xmlns:xlink="http://www.w3.org/1999/xlink" width="500" zoomAndPan="magnify" viewBox="0 0 375 374.999991" height="500" preserveAspectRatio="xMidYMid meet" version="1.0"><defs><g/><clipPath id="881bb3eb8b"><path d="M 128.25 87.980469 L 240.75 87.980469 L 240.75 155.480469 L 128.25 155.480469 Z M 128.25 87.980469 " clip-rule="nonzero"/></clipPath><clipPath id="03522d6a08"><rect x="0" width="107" y="0" height="120"/></clipPath><clipPath id="74efedf766"><rect x="0" width="95" y="0" height="120"/></clipPath></defs><g clip-path="url(#881bb3eb8b)"><path fill="#c69842" d="M 237.671875 112.964844 L 238.125 114.941406 C 223.347656 131.390625 213.589844 139.167969 210.742188 135.023438 C 208.46875 127.15625 209.605469 119.375 213.1875 111.65625 L 216.226562 110.226562 L 216.8125 103.457031 L 212.140625 108.371094 L 213.097656 111.667969 C 209.234375 118.175781 205.085938 123.941406 200.339844 128.152344 C 195.339844 132.585938 193.8125 133.210938 190.582031 126.234375 C 188.1875 121.066406 187.367188 114.140625 185.757812 108.09375 L 189.851562 103.292969 L 184.5 87.992188 L 179.152344 103.292969 L 183.246094 108.089844 C 181.636719 114.136719 180.816406 121.0625 178.421875 126.234375 C 175.1875 133.207031 173.664062 132.585938 168.664062 128.152344 C 163.917969 123.9375 159.765625 118.171875 155.90625 111.664062 L 156.863281 108.371094 L 152.1875 103.457031 L 152.773438 110.226562 L 155.816406 111.65625 C 159.394531 119.375 160.535156 127.15625 158.261719 135.023438 C 155.410156 139.167969 145.65625 131.386719 130.878906 114.941406 L 131.332031 112.964844 L 128.25 110.078125 L 128.855469 114.265625 L 130.683594 115 L 150.964844 150.453125 C 150.949219 150.460938 150.941406 150.464844 150.941406 150.464844 L 151.734375 151.800781 C 188.125 139.753906 210.597656 149.703125 210.597656 149.703125 C 210.597656 149.703125 201.695312 144.074219 181.691406 144.117188 C 166.9375 144.085938 157.21875 147.554688 153.136719 149.378906 L 145.269531 133.921875 C 145.402344 134.03125 145.53125 134.136719 145.664062 134.242188 C 148.957031 136.890625 154.734375 141.1875 159.109375 138.628906 C 159.851562 138.195312 160.472656 137.601562 160.960938 136.894531 L 161.261719 136.453125 L 161.410156 135.941406 C 162.292969 132.886719 162.707031 129.855469 162.710938 126.851562 C 163.914062 128.183594 165.171875 129.449219 166.496094 130.621094 C 168.71875 132.59375 171.539062 135.199219 174.753906 134.722656 C 178.230469 134.207031 180.070312 130.484375 181.394531 127.621094 C 182.867188 124.449219 183.746094 120.910156 184.503906 117.441406 C 185.261719 120.910156 186.136719 124.449219 187.609375 127.621094 C 188.9375 130.484375 190.777344 134.207031 194.253906 134.722656 C 197.46875 135.199219 200.285156 132.59375 202.511719 130.621094 C 203.832031 129.449219 205.09375 128.183594 206.292969 126.851562 C 206.300781 129.855469 206.710938 132.886719 207.59375 135.941406 L 207.742188 136.453125 L 208.042969 136.894531 C 208.53125 137.601562 209.152344 138.195312 209.894531 138.628906 C 214.273438 141.183594 220.042969 136.890625 223.339844 134.242188 C 223.460938 134.144531 223.578125 134.050781 223.695312 133.953125 L 213.375 152.023438 C 208.609375 150.394531 199.183594 147.929688 185.785156 147.957031 C 165.9375 147.917969 157.015625 153.460938 156.878906 153.546875 C 157.089844 153.453125 177.984375 144.332031 211.984375 154.460938 C 213.046875 154.777344 214.121094 155.113281 215.210938 155.46875 L 238.320312 115 L 240.144531 114.265625 L 240.75 110.078125 Z M 237.671875 112.964844 " fill-opacity="1" fill-rule="evenodd"/></g><g transform="matrix(1, 0, 0, 1, 157, 156)"><g clip-path="url(#03522d6a08)"><g fill="#c69842" fill-opacity="1"><g transform="translate(1.636471, 94.831052)"><g><path d="M 5.953125 -85.640625 L 26.875 -85.640625 L 53.171875 -16.890625 L 77.546875 -85.640625 L 98.484375 -85.640625 L 98.484375 -84.453125 C 94.273438 -84.453125 91.539062 -83.578125 90.28125 -81.828125 C 89.40625 -80.554688 88.96875 -78.257812 88.96875 -74.9375 L 88.96875 -10.703125 C 88.96875 -7.367188 89.40625 -5.070312 90.28125 -3.8125 C 91.539062 -2.0625 94.273438 -1.1875 98.484375 -1.1875 L 98.484375 0 L 67.5625 0 L 67.5625 -1.1875 C 71.757812 -1.1875 74.492188 -2.0625 75.765625 -3.8125 C 76.640625 -5.070312 77.078125 -7.367188 77.078125 -10.703125 L 77.078125 -80.40625 L 48.40625 0 L 47.09375 0 L 16.65625 -78.859375 L 16.65625 -10.703125 C 16.65625 -7.210938 17.40625 -4.753906 18.90625 -3.328125 C 20.332031 -1.898438 22.753906 -1.1875 26.171875 -1.1875 L 26.171875 0 L 5.953125 0 L 5.953125 -1.1875 C 9.203125 -1.1875 11.578125 -1.941406 13.078125 -3.453125 C 14.671875 -5.035156 15.46875 -7.453125 15.46875 -10.703125 L 15.46875 -78.96875 C 15.46875 -80.789062 14.671875 -82.140625 13.078125 -83.015625 C 11.578125 -83.972656 9.203125 -84.453125 5.953125 -84.453125 Z M 5.953125 -85.640625 "/></g></g></g></g></g><g transform="matrix(1, 0, 0, 1, 108, 156)"><g clip-path="url(#74efedf766)"><g fill="#000000" fill-opacity="1"><g transform="translate(0.509207, 94.831052)"><g><path d="M 5.945312 -88.308594 L 39.546875 -88.308594 L 39.546875 -81.769531 L 36.871094 -81.769531 C 34.296875 -81.769531 32.789062 -81.195312 32.355469 -80.046875 C 32.066406 -79.265625 32.355469 -77.988281 33.214844 -76.214844 L 33.269531 -76.101562 L 54.957031 -17.820312 L 52.449219 -16.890625 L 49.945312 -17.828125 L 71.710938 -75.867188 L 74.214844 -74.929688 L 71.675781 -75.773438 C 72.226562 -77.429688 72.589844 -78.773438 72.765625 -79.804688 C 72.839844 -80.242188 72.878906 -80.601562 72.878906 -80.882812 C 72.878906 -80.976562 72.875 -81.046875 72.867188 -81.101562 C 72.867188 -81.097656 72.871094 -81.078125 72.882812 -81.046875 L 72.871094 -81.074219 C 72.785156 -81.15625 72.632812 -81.242188 72.414062 -81.324219 C 71.65625 -81.621094 70.511719 -81.769531 68.980469 -81.769531 L 66.304688 -81.769531 L 66.304688 -88.308594 L 90.6875 -88.308594 L 90.6875 -81.769531 L 88.011719 -81.769531 C 84.839844 -81.769531 82.71875 -81.261719 81.648438 -80.242188 L 81.609375 -80.207031 L 81.566406 -80.171875 C 81.136719 -79.792969 80.617188 -79.105469 80.003906 -78.109375 C 79.316406 -76.988281 78.601562 -75.570312 77.859375 -73.863281 L 75.40625 -74.929688 L 77.914062 -73.996094 L 55.671875 -14.289062 L 49.308594 2.675781 L 44.289062 2.675781 L 15.558594 -74.144531 L 15.546875 -74.183594 C 14.625 -76.875 13.835938 -78.609375 13.179688 -79.386719 C 11.820312 -80.972656 9.40625 -81.769531 5.945312 -81.769531 L 3.269531 -81.769531 L 3.269531 -88.308594 Z M 5.945312 -82.957031 L 5.945312 -85.632812 L 8.621094 -85.632812 L 8.621094 -84.445312 L 5.945312 -84.445312 L 5.945312 -87.121094 C 11.050781 -87.121094 14.820312 -85.695312 17.265625 -82.84375 C 18.355469 -81.554688 19.46875 -79.246094 20.609375 -75.914062 L 18.078125 -75.046875 L 20.585938 -75.984375 L 48.652344 -0.9375 L 46.148438 0 L 46.148438 -2.675781 L 47.453125 -2.675781 L 47.453125 0 L 44.949219 -0.941406 L 50.65625 -16.15625 L 72.921875 -75.929688 L 72.949219 -75.996094 C 73.792969 -77.933594 74.625 -79.570312 75.441406 -80.90625 C 76.335938 -82.367188 77.203125 -83.464844 78.042969 -84.199219 L 79.804688 -82.183594 L 77.960938 -84.125 C 80.0625 -86.121094 83.414062 -87.121094 88.011719 -87.121094 L 88.011719 -84.445312 L 85.335938 -84.445312 L 85.335938 -85.632812 L 88.011719 -85.632812 L 88.011719 -82.957031 L 68.980469 -82.957031 L 68.980469 -85.632812 L 71.660156 -85.632812 L 71.660156 -84.445312 L 68.980469 -84.445312 L 68.980469 -87.121094 C 73.996094 -87.121094 76.976562 -85.695312 77.925781 -82.847656 C 78.28125 -81.851562 78.320312 -80.542969 78.042969 -78.914062 C 77.820312 -77.605469 77.390625 -75.996094 76.753906 -74.082031 L 76.738281 -74.035156 L 52.441406 -9.242188 L 28.296875 -74.113281 L 30.804688 -75.046875 L 28.394531 -73.882812 C 26.875 -77.023438 26.527344 -79.710938 27.351562 -81.945312 C 28.035156 -83.75 29.28125 -85.097656 31.082031 -85.984375 C 32.621094 -86.742188 34.550781 -87.121094 36.871094 -87.121094 L 36.871094 -84.445312 L 34.195312 -84.445312 L 34.195312 -85.632812 L 36.871094 -85.632812 L 36.871094 -82.957031 Z M 5.945312 -82.957031 "/></g></g></g><g fill="#c69842" fill-opacity="1"><g transform="translate(0.509207, 94.831052)"><g><path d="M 5.953125 -85.640625 L 36.875 -85.640625 L 36.875 -84.453125 C 33.0625 -84.453125 30.722656 -83.300781 29.859375 -81 C 29.296875 -79.488281 29.613281 -77.503906 30.8125 -75.046875 L 52.453125 -16.890625 L 74.21875 -74.9375 C 75.40625 -78.5 75.800781 -80.835938 75.40625 -81.953125 C 74.851562 -83.617188 72.710938 -84.453125 68.984375 -84.453125 L 68.984375 -85.640625 L 88.015625 -85.640625 L 88.015625 -84.453125 C 84.128906 -84.453125 81.394531 -83.695312 79.8125 -82.1875 C 79.175781 -81.632812 78.476562 -80.742188 77.71875 -79.515625 C 76.96875 -78.285156 76.195312 -76.757812 75.40625 -74.9375 L 53.171875 -15.21875 L 47.453125 0 L 46.140625 0 L 18.078125 -75.046875 C 17.046875 -78.054688 16.09375 -80.078125 15.21875 -81.109375 C 13.320312 -83.335938 10.234375 -84.453125 5.953125 -84.453125 Z M 5.953125 -85.640625 "/></g></g></g></g></g><g fill="#c69842" fill-opacity="1"><g transform="translate(102.411429, 284.314669)"><g><path d="M 10.890625 -13.5 L 12.234375 -13.5 L 6.828125 0 L 5.46875 0 L 0.046875 -13.5 L 1.40625 -13.5 L 6.15625 -1.40625 Z M 10.890625 -13.5 "/></g></g></g><g fill="#c69842" fill-opacity="1"><g transform="translate(118.665403, 284.314669)"><g><path d="M 1.78125 0 L 1.78125 -13.5 L 2.984375 -13.5 L 2.984375 0 Z M 1.78125 0 "/></g></g></g><g fill="#c69842" fill-opacity="1"><g transform="translate(127.3774, 284.314669)"><g><path d="M 5.015625 0.1875 C 4.035156 0.1875 3.15625 -0.0625 2.375 -0.5625 C 1.59375 -1.050781 1.03125 -1.703125 0.6875 -2.515625 L 1.796875 -3.15625 C 2.035156 -2.519531 2.445312 -2.007812 3.03125 -1.625 C 3.59375 -1.238281 4.265625 -1.046875 5.046875 -1.046875 C 5.867188 -1.046875 6.554688 -1.257812 7.109375 -1.6875 C 7.660156 -2.113281 7.9375 -2.695312 7.9375 -3.4375 C 7.9375 -3.90625 7.816406 -4.320312 7.578125 -4.6875 C 7.328125 -5.039062 7.007812 -5.332031 6.625 -5.5625 C 6.226562 -5.789062 5.796875 -6.003906 5.328125 -6.203125 C 4.847656 -6.398438 4.367188 -6.613281 3.890625 -6.84375 C 3.410156 -7.050781 2.976562 -7.296875 2.59375 -7.578125 C 2.195312 -7.847656 1.878906 -8.207031 1.640625 -8.65625 C 1.390625 -9.101562 1.265625 -9.617188 1.265625 -10.203125 C 1.265625 -11.265625 1.625 -12.113281 2.34375 -12.75 C 3.050781 -13.375 3.925781 -13.6875 4.96875 -13.6875 C 5.695312 -13.6875 6.375 -13.53125 7 -13.21875 C 7.613281 -12.90625 8.109375 -12.507812 8.484375 -12.03125 L 7.546875 -11.21875 C 6.960938 -12.039062 6.113281 -12.453125 5 -12.453125 C 4.289062 -12.453125 3.695312 -12.265625 3.21875 -11.890625 C 2.726562 -11.523438 2.484375 -10.992188 2.484375 -10.296875 C 2.484375 -9.679688 2.710938 -9.164062 3.171875 -8.75 C 3.628906 -8.332031 4.1875 -7.988281 4.84375 -7.71875 C 5.488281 -7.457031 6.140625 -7.175781 6.796875 -6.875 C 7.453125 -6.570312 8.003906 -6.140625 8.453125 -5.578125 C 8.910156 -5.015625 9.140625 -4.3125 9.140625 -3.46875 C 9.140625 -2.34375 8.742188 -1.457031 7.953125 -0.8125 C 7.160156 -0.144531 6.179688 0.1875 5.015625 0.1875 Z M 5.015625 0.1875 "/></g></g></g><g fill="#c69842" fill-opacity="1"><g transform="translate(141.18338, 284.314669)"><g><path d="M 6.59375 0.1875 C 5.164062 0.1875 3.976562 -0.257812 3.03125 -1.15625 C 2.082031 -2.03125 1.609375 -3.128906 1.609375 -4.453125 L 1.609375 -13.5 L 2.8125 -13.5 L 2.8125 -4.625 C 2.8125 -3.601562 3.171875 -2.75 3.890625 -2.0625 C 4.609375 -1.382812 5.507812 -1.046875 6.59375 -1.046875 C 7.65625 -1.046875 8.546875 -1.382812 9.265625 -2.0625 C 9.984375 -2.75 10.34375 -3.601562 10.34375 -4.625 L 10.34375 -13.5 L 11.578125 -13.5 L 11.578125 -4.453125 C 11.578125 -3.128906 11.101562 -2.03125 10.15625 -1.15625 C 9.207031 -0.257812 8.019531 0.1875 6.59375 0.1875 Z M 6.59375 0.1875 "/></g></g></g><g fill="#c69842" fill-opacity="1"><g transform="translate(158.31935, 284.314669)"><g><path d="M 6.90625 -6.203125 L 10.90625 0 L 9.46875 0 L 5.578125 -6.15625 L 2.875 -6.15625 L 2.875 0 L 1.671875 0 L 1.671875 -13.5 L 6.359375 -13.5 C 7.390625 -13.5 8.269531 -13.140625 9 -12.421875 C 9.71875 -11.691406 10.078125 -10.8125 10.078125 -9.78125 C 10.078125 -8.863281 9.78125 -8.066406 9.1875 -7.390625 C 8.570312 -6.710938 7.8125 -6.316406 6.90625 -6.203125 Z M 2.875 -7.328125 L 6.296875 -7.328125 C 7.023438 -7.328125 7.640625 -7.5625 8.140625 -8.03125 C 8.617188 -8.488281 8.859375 -9.078125 8.859375 -9.796875 C 8.859375 -10.515625 8.613281 -11.109375 8.125 -11.578125 C 7.625 -12.046875 7.015625 -12.28125 6.296875 -12.28125 L 2.875 -12.28125 Z M 2.875 -7.328125 "/></g></g></g><g fill="#c69842" fill-opacity="1"><g transform="translate(173.673326, 284.314669)"><g><path d="M 10.90625 0 L 9.640625 -3.21875 L 2.640625 -3.21875 L 1.390625 0 L 0.046875 0 L 5.46875 -13.5 L 6.828125 -13.5 L 12.234375 0 Z M 3.109375 -4.390625 L 9.1875 -4.390625 L 6.15625 -12.09375 Z M 3.109375 -4.390625 "/></g></g></g><g fill="#c69842" fill-opacity="1"><g transform="translate(189.9273, 284.314669)"><g/></g></g><g fill="#c69842" fill-opacity="1"><g transform="translate(198.9273, 284.314669)"><g><path d="M 13.59375 -13.5 L 14.84375 -13.5 L 14.84375 0 L 13.640625 0 L 13.640625 -11.296875 L 8.25 -2.046875 L 2.875 -11.328125 L 2.875 0 L 1.671875 0 L 1.671875 -13.5 L 2.9375 -13.5 L 8.265625 -4.390625 Z M 13.59375 -13.5 "/></g></g></g><g fill="#c69842" fill-opacity="1"><g transform="translate(219.411262, 284.314669)"><g><path d="M 9.03125 -12.328125 L 2.984375 -12.328125 L 2.984375 -7.34375 L 8.28125 -7.34375 L 8.28125 -6.15625 L 2.984375 -6.15625 L 2.984375 -1.171875 L 9.03125 -1.171875 L 9.03125 0 L 1.78125 0 L 1.78125 -13.5 L 9.03125 -13.5 Z M 9.03125 -12.328125 "/></g></g></g><g fill="#c69842" fill-opacity="1"><g transform="translate(233.289248, 284.314669)"><g><path d="M 1.671875 0 L 1.671875 -13.5 L 5.234375 -13.5 C 7.097656 -13.5 8.691406 -12.835938 10.015625 -11.515625 C 11.328125 -10.203125 11.984375 -8.613281 11.984375 -6.75 C 11.984375 -4.882812 11.328125 -3.296875 10.015625 -1.984375 C 8.691406 -0.660156 7.097656 0 5.234375 0 Z M 2.875 -1.21875 L 5.21875 -1.21875 C 6.78125 -1.21875 8.09375 -1.75 9.15625 -2.8125 C 10.226562 -3.863281 10.765625 -5.175781 10.765625 -6.75 C 10.765625 -8.320312 10.226562 -9.632812 9.15625 -10.6875 C 8.09375 -11.75 6.78125 -12.28125 5.21875 -12.28125 L 2.875 -12.28125 Z M 2.875 -1.21875 "/></g></g></g><g fill="#c69842" fill-opacity="1"><g transform="translate(250.425218, 284.314669)"><g><path d="M 1.78125 0 L 1.78125 -13.5 L 2.984375 -13.5 L 2.984375 0 Z M 1.78125 0 "/></g></g></g><g fill="#c69842" fill-opacity="1"><g transform="translate(259.137215, 284.314669)"><g><path d="M 10.90625 0 L 9.640625 -3.21875 L 2.640625 -3.21875 L 1.390625 0 L 0.046875 0 L 5.46875 -13.5 L 6.828125 -13.5 L 12.234375 0 Z M 3.109375 -4.390625 L 9.1875 -4.390625 L 6.15625 -12.09375 Z M 3.109375 -4.390625 "/></g></g></g></svg>